# xmcd CD database file
#
# Track frame offsets:
#	187
#	17787
#	33962
#
# Disc length: 725 seconds
#
# Revision: 0
# Processed by: cddbd v1.5PL3 Copyright (c) Steve Scherf et al.
# Submitted via: CDex 1.51
#
DISCID=1902d303
DTITLE=The High-Lows - グッドバイ
DYEAR=1995
DGENRE=Rock
TTITLE0=グッドバイ
TTITLE1=ジュー・ジュー
TTITLE2=バナナボートに銀の月 (LIVE Version)
EXTD=YEAR: 1995
EXTT0=
EXTT1=
EXTT2=
PLAYORDER=
